<svg xmlns="http://www.w3.org/2000/svg" width="500" height="387" viewBox="0 0 500 387">
  <g id="Top" transform="translate(-133 -273)" fill="#cc293e">
    <path d="M 330.0003051757813 659.4996948242188 C 293.9204406738281 659.4996948242188 258.4545593261719 653.7052612304688 224.5876922607422 642.2772827148438 C 208.2146301269531 636.7523803710938 192.1451263427734 629.865234375 176.825439453125 621.8071899414063 C 161.7619171142578 613.8839111328125 147.1864318847656 604.7042236328125 133.5001831054688 594.5211791992188 L 133.5001831054688 273.4996948242188 L 632.4996948242188 273.4996948242188 L 632.4996948242188 460.8410034179688 C 619.9562377929688 489.8045959472656 603.2957153320313 516.8196411132813 582.9802856445313 541.1360473632813 C 562.7758178710938 565.3197631835938 539.2706909179688 586.4623413085938 513.1177978515625 603.9764404296875 C 458.8778076171875 640.300048828125 395.5568237304688 659.4996948242188 330.0003051757813 659.4996948242188 Z" stroke="none"/>
    <path d="M 330.0003051757813 658.9996948242188 C 395.4573669433594 658.9996948242188 458.6821899414063 639.829345703125 512.8395385742188 603.56103515625 C 538.9529418945313 586.0733032226563 562.4225463867188 564.9627075195313 582.5965576171875 540.8154907226563 C 602.8589477539063 516.5626220703125 619.4800415039063 489.6208801269531 631.9996948242188 460.7373657226563 L 631.9996948242188 273.9996948242188 L 134.0001831054688 273.9996948242188 L 134.0001831054688 594.2698974609375 C 147.6072540283203 604.3778076171875 162.0913543701172 613.4921875 177.0581817626953 621.3646850585938 C 192.3545074462891 629.4104614257813 208.3995056152344 636.2870483398438 224.74755859375 641.8035278320313 C 258.5628051757813 653.2140502929688 293.9749450683594 658.9996948242188 330.0003051757813 658.9996948242188 M 330.0003051757813 659.9996948242188 C 256.1596374511719 659.9996948242188 187.9810638427734 635.7456665039063 133.0001831054688 594.7722778320313 L 133.0001831054688 272.9996948242188 L 632.9996948242188 272.9996948242188 L 632.9996948242188 460.944580078125 C 582.3222045898438 578.06396484375 465.73388671875 659.9996948242188 330.0003051757813 659.9996948242188 Z" stroke="none" fill="#707070"/>
  </g>
</svg>
