<svg xmlns="http://www.w3.org/2000/svg" width="1000" height="1000" viewBox="0 0 1000 1000">
  <path id="Icon_Food" data-name="Icon Food" d="M998.512,269.74l-81.979,733.085h-276.9L557.991,266.08H896.033L962.845,2.825l37.875,13.024-64.1,253.345,61.9.547ZM518.845,693.867S529.2,598.8,385.616,598.8H156.949C13.574,598.8,23.72,693.867,23.72,693.867H518.845ZM23.72,907.761s-10.146,95.064,133.229,95.064H385.637c143.583,0,133.229-95.064,133.229-95.064H23.72Zm473.646-47.532c23.5,0,42.479-26.475,42.479-59.391,0-33.106-18.979-59.439-42.479-59.439H43.22c-23.4,0-42.5,26.333-42.5,59.439,0,32.916,19.1,59.391,42.5,59.391H497.366Z" transform="translate(-0.72 -2.825)" fill="#cc293e"/>
</svg>
