<svg xmlns="http://www.w3.org/2000/svg" width="2794" height="1446" viewBox="0 0 2794 1446">
  <g id="Food_Item_Top" data-name="Food Item Top" transform="translate(-979 -1616)" fill="#cc293e">
    <path d="M 2376 3061.499755859375 C 2343.62646484375 3061.499755859375 2310.85546875 3060.778076171875 2278.597900390625 3059.35400390625 C 2246.538330078125 3057.93896484375 2214.102783203125 3055.7919921875 2182.19287109375 3052.97216796875 C 2150.4716796875 3050.16943359375 2118.397216796875 3046.62451171875 2086.8603515625 3042.4365234375 C 2055.50244140625 3038.272216796875 2023.81396484375 3033.357666015625 1992.674682617188 3027.8291015625 C 1961.705322265625 3022.33056640625 1930.427856445313 3016.07373046875 1899.711791992188 3009.232177734375 C 1869.155395507813 3002.426513671875 1838.314697265625 2994.855224609375 1808.046752929688 2986.728759765625 C 1777.927856445313 2978.641845703125 1747.548950195313 2969.783935546875 1717.754638671875 2960.400146484375 C 1688.098266601563 2951.059814453125 1658.206420898438 2940.942138671875 1628.910400390625 2930.3291015625 C 1599.741088867188 2919.761962890625 1570.362182617188 2908.4130859375 1541.589233398438 2896.597900390625 C 1512.932495117188 2884.83056640625 1484.091430664063 2872.278076171875 1455.866821289063 2859.2890625 C 1427.747192382813 2846.348388671875 1399.46923828125 2832.619873046875 1371.818237304688 2818.484375 C 1344.2607421875 2804.397216796875 1316.570678710938 2789.52001953125 1289.518188476563 2774.2666015625 C 1262.5478515625 2759.059326171875 1235.471801757813 2743.06201171875 1209.042114257813 2726.717529296875 C 1182.683959960938 2710.417724609375 1156.247192382813 2693.326904296875 1130.465698242188 2675.920166015625 C 1104.74462890625 2658.553955078125 1078.97216796875 2640.39794921875 1053.863891601563 2621.956298828125 C 1028.869262695313 2603.597900390625 1003.851196289063 2584.456298828125 979.5 2565.05859375 L 979.5 1616.499755859375 L 3772.5 1616.499755859375 L 3772.5 2565.05859375 C 3748.148681640625 2584.456298828125 3723.131103515625 2603.597900390625 3698.136474609375 2621.956298828125 C 3673.0283203125 2640.39794921875 3647.25537109375 2658.553955078125 3621.5341796875 2675.920166015625 C 3595.753173828125 2693.326904296875 3569.316162109375 2710.417724609375 3542.957763671875 2726.717529296875 C 3516.528564453125 2743.06201171875 3489.452392578125 2759.059326171875 3462.482177734375 2774.2666015625 C 3435.42919921875 2789.52001953125 3407.73974609375 2804.397216796875 3380.18212890625 2818.484375 C 3352.531005859375 2832.619873046875 3324.2529296875 2846.348388671875 3296.13330078125 2859.2890625 C 3267.908935546875 2872.278076171875 3239.0673828125 2884.83056640625 3210.41064453125 2896.597900390625 C 3181.637939453125 2908.4130859375 3152.259033203125 2919.761962890625 3123.090087890625 2930.3291015625 C 3093.79345703125 2940.942138671875 3063.902099609375 2951.059814453125 3034.24560546875 2960.400146484375 C 3004.451171875 2969.783935546875 2974.072021484375 2978.641845703125 2943.953125 2986.728759765625 C 2913.685302734375 2994.855224609375 2882.8447265625 3002.426513671875 2852.288330078125 3009.232177734375 C 2821.572021484375 3016.07373046875 2790.294921875 3022.33056640625 2759.325439453125 3027.8291015625 C 2728.18603515625 3033.357666015625 2696.49755859375 3038.272216796875 2665.139892578125 3042.4365234375 C 2633.602783203125 3046.62451171875 2601.5283203125 3050.16943359375 2569.80712890625 3052.97216796875 C 2537.897216796875 3055.7919921875 2505.461669921875 3057.93896484375 2473.402099609375 3059.35400390625 C 2441.14453125 3060.778076171875 2408.37353515625 3061.499755859375 2376 3061.499755859375 Z" stroke="none"/>
    <path d="M 2376 3060.999755859375 C 2408.366455078125 3060.999755859375 2441.129638671875 3060.278076171875 2473.3798828125 3058.854736328125 C 2505.4326171875 3057.440185546875 2537.8603515625 3055.293212890625 2569.762939453125 3052.474365234375 C 2601.476806640625 3049.671875 2633.544189453125 3046.1279296875 2665.073974609375 3041.94091796875 C 2696.424560546875 3037.777587890625 2728.105712890625 3032.864013671875 2759.23779296875 3027.3369140625 C 2790.200439453125 3021.83984375 2821.470458984375 3015.583984375 2852.17919921875 3008.744384765625 C 2882.729248046875 3001.940185546875 2913.562744140625 2994.370361328125 2943.823486328125 2986.245849609375 C 2973.935791015625 2978.160888671875 3004.3076171875 2969.3046875 3034.095458984375 2959.9228515625 C 3063.7451171875 2950.585205078125 3093.6298828125 2940.4697265625 3122.919677734375 2929.859130859375 C 3152.08203125 2919.2939453125 3181.454345703125 2907.947998046875 3210.22119140625 2896.135498046875 C 3238.871337890625 2884.370849609375 3267.7060546875 2871.82080078125 3295.92431640625 2858.834716796875 C 3324.03759765625 2845.89697265625 3352.3095703125 2832.171142578125 3379.95458984375 2818.0390625 C 3407.506103515625 2803.955078125 3435.189697265625 2789.081298828125 3462.236328125 2773.831298828125 C 3489.201171875 2758.627197265625 3516.27099609375 2742.633056640625 3542.695068359375 2726.292724609375 C 3569.047607421875 2709.995849609375 3595.47900390625 2692.908935546875 3621.254638671875 2675.505859375 C 3646.970458984375 2658.143310546875 3672.737548828125 2639.9912109375 3697.84033203125 2621.55322265625 C 3722.765380859375 2603.246337890625 3747.71337890625 2584.15966796875 3772 2564.8173828125 L 3772 1616.999755859375 L 980 1616.999755859375 L 980 2564.8173828125 C 1004.286743164063 2584.15966796875 1029.234497070313 2603.246337890625 1054.15966796875 2621.55322265625 C 1079.262451171875 2639.9912109375 1105.030029296875 2658.143310546875 1130.745727539063 2675.505859375 C 1156.521484375 2692.908935546875 1182.952514648438 2709.995849609375 1209.305297851563 2726.292724609375 C 1235.728881835938 2742.633056640625 1262.79931640625 2758.627197265625 1289.763549804688 2773.831298828125 C 1316.810302734375 2789.081298828125 1344.494262695313 2803.955078125 1372.045654296875 2818.0390625 C 1399.690673828125 2832.171142578125 1427.962524414063 2845.89697265625 1456.07568359375 2858.834716796875 C 1484.2939453125 2871.82080078125 1513.12890625 2884.370849609375 1541.779296875 2896.135498046875 C 1570.545654296875 2907.947998046875 1599.918212890625 2919.2939453125 1629.080688476563 2929.859130859375 C 1658.370361328125 2940.4697265625 1688.255004882813 2950.585205078125 1717.904663085938 2959.9228515625 C 1747.692504882813 2969.3046875 1778.064331054688 2978.160888671875 1808.176391601563 2986.245849609375 C 1838.4375 2994.370361328125 1869.271118164063 3001.940185546875 1899.820678710938 3008.744384765625 C 1930.529663085938 3015.583984375 1961.799682617188 3021.83984375 1992.762084960938 3027.3369140625 C 2023.894287109375 3032.864013671875 2055.575439453125 3037.777587890625 2086.926025390625 3041.94091796875 C 2118.4560546875 3046.1279296875 2150.523193359375 3049.671875 2182.237060546875 3052.474365234375 C 2214.1396484375 3055.293212890625 2246.5673828125 3057.440185546875 2278.6201171875 3058.854736328125 C 2310.870361328125 3060.278076171875 2343.633544921875 3060.999755859375 2376 3060.999755859375 M 2376 3061.999755859375 C 1853.879638671875 3061.999755859375 1371.093627929688 2877.6982421875 979 2565.29931640625 L 979 1615.999755859375 L 3773 1615.999755859375 L 3773 2565.29931640625 C 3380.90673828125 2877.6982421875 2898.120361328125 3061.999755859375 2376 3061.999755859375 Z" stroke="none" fill="#707070"/>
  </g>
</svg>
