<svg xmlns="http://www.w3.org/2000/svg" width="19" height="16.832" viewBox="0 0 19 16.832">
  <g id="Group" transform="translate(-2 -3.168)">
    <path id="Path_16" data-name="Path 16" d="M16.6,11.048a5.67,5.67,0,0,0,.751-3.44,6.035,6.035,0,0,0-2.8-4.44l-1.1,1.666a4.077,4.077,0,0,1,1.918,2.974,3.693,3.693,0,0,1-1.072,2.986L13.1,11.986l1.618.475A5.987,5.987,0,0,1,19,18h2A7.98,7.98,0,0,0,16.6,11.048Z" fill="#cc293e"/>
    <path id="Path_17" data-name="Path 17" d="M9.5,12a4,4,0,1,0-4-4A4,4,0,0,0,9.5,12Zm0-6a2,2,0,1,1-2,2A2,2,0,0,1,9.5,6ZM11,13H8a6.006,6.006,0,0,0-6,6v1H4V19a4,4,0,0,1,4-4h3a4,4,0,0,1,4,4v1h2V19A6.006,6.006,0,0,0,11,13Z" fill="#cc293e"/>
  </g>
</svg>
