<svg xmlns="http://www.w3.org/2000/svg" width="1000" height="1000" viewBox="0 0 1000 1000">
  <path id="Red_Moon" data-name="Red Moon" d="M500,1000c-15.323,0-30.788-.7-45.965-2.085-14.977-1.365-30.048-3.428-44.8-6.132-14.571-2.672-29.187-6.036-43.444-10-14.105-3.921-28.206-8.524-41.91-13.682-13.58-5.112-27.1-10.893-40.194-17.184-12.995-6.245-25.879-13.143-38.3-20.5-12.348-7.32-24.533-15.274-36.217-23.643-11.64-8.337-23.064-17.286-33.956-26.6a504.4,504.4,0,0,1-60.4-61.34c-9.148-11.039-17.922-22.605-26.08-34.377-8.191-11.821-15.96-24.136-23.09-36.605C58.479,735.306,51.777,722.3,45.733,709.2c-6.092-13.206-11.666-26.838-16.566-40.517-4.947-13.809-9.332-28.007-13.031-42.2-3.74-14.349-6.874-29.052-9.314-43.7L247.469,575H5.587A505.982,505.982,0,0,1,0,500,497.6,497.6,0,0,1,82.351,225H400a15.017,15.017,0,0,0-15-15L88.029,216.581A502.465,502.465,0,0,1,263.743,59.234,496.7,496.7,0,0,1,436.929,3.941,506.857,506.857,0,0,1,500,0,499.041,499.041,0,0,1,663.728,27.42c12.717,4.405,25.414,9.392,37.738,14.824,12.231,5.391,24.4,11.354,36.172,17.723A501.676,501.676,0,0,1,953.368,288.86c5.683,12.184,10.932,24.747,15.6,37.34,4.708,12.7,8.946,25.756,12.594,38.8H703.037l280.576,7.558a499.66,499.66,0,0,1,12.2,62.463A506.724,506.724,0,0,1,1000,500a497.6,497.6,0,0,1-78.684,269.359L663.125,765C655.888,765,650,769.486,650,775H917.649a502.517,502.517,0,0,1-176.91,163.33,496.692,496.692,0,0,1-176.348,57.562A506.693,506.693,0,0,1,500,1000Z" transform="translate(0 0)" fill="#cc293e"/>
</svg>
