<svg xmlns="http://www.w3.org/2000/svg" width="2432" height="2891" viewBox="0 0 2432 2891">
  <g id="Top" transform="translate(1541 1592)" fill="#cc293e">
    <path d="M -609.2963256835938 1298.500610351563 C -650.2791748046875 1298.500610351563 -691.7391357421875 1297.444580078125 -732.5245361328125 1295.361328125 C -772.9981079101563 1293.294555664063 -813.9070434570313 1290.160278320313 -854.1148681640625 1286.045654296875 C -894.0291748046875 1281.9609375 -934.3359375 1276.799560546875 -973.9159545898438 1270.704833984375 C -1013.2216796875 1264.651977539063 -1052.875610351563 1257.514892578125 -1091.776977539063 1249.491333007813 C -1130.424194335938 1241.519897460938 -1169.375244140625 1232.457763671875 -1207.546997070313 1222.557006835938 C -1245.486694335938 1212.71630859375 -1283.68310546875 1201.780639648438 -1321.075561523438 1190.05419921875 C -1358.25732421875 1178.393432617188 -1395.648803710938 1165.635620117188 -1432.211303710938 1152.134521484375 C -1468.481201171875 1138.741577148438 -1504.914916992188 1124.255859375 -1540.499877929688 1109.079833984375 L -1540.499877929688 -1591.500122070313 L 890.5001220703125 -1591.500122070313 L 890.5001220703125 765.394287109375 C 865.09423828125 786.095947265625 838.9130859375 806.5436401367188 812.6847534179688 826.1680908203125 C 786.3504638671875 845.871337890625 759.2483520507813 865.2841796875 732.1311645507813 883.86669921875 C 704.9586791992188 902.4869995117188 677.0301513671875 920.7820434570313 649.1204833984375 938.2427368164063 C 621.1422729492188 955.7473754882813 592.41943359375 972.8912963867188 563.75048828125 989.1991577148438 C 534.9979858398438 1005.554504394531 505.514404296875 1021.515625 476.1183471679688 1036.638427734375 C 446.6240539550781 1051.81201171875 416.4122619628906 1066.557006835938 386.3211975097656 1080.463500976563 C 356.1176147460938 1094.421997070313 325.2101135253906 1107.918090820313 294.4569091796875 1120.576293945313 C 263.5762023925781 1133.286987304688 232.0058288574219 1145.501708984375 200.6222686767578 1156.880249023438 C 169.0969085693359 1168.310302734375 136.8961944580078 1179.210205078125 104.9147644042969 1189.27734375 C 72.77726745605469 1199.393798828125 39.97940826416016 1208.946655273438 7.432264804840088 1217.6708984375 C -25.28523445129395 1226.440551757813 -58.64773559570313 1234.61376953125 -91.72880554199219 1241.963500976563 C -124.9934463500977 1249.353515625 -158.8877410888672 1256.114135742188 -192.4702301025391 1262.057006835938 C -226.2495269775391 1268.034912109375 -260.6430969238281 1273.350219726563 -294.6948852539063 1277.855224609375 C -328.9566650390625 1282.3876953125 -363.816650390625 1286.224853515625 -398.3059387207031 1289.259887695313 C -433.0173645019531 1292.314575195313 -468.3105773925781 1294.640991210938 -503.2052307128906 1296.174194335938 C -538.3341674804688 1297.7177734375 -574.028076171875 1298.500610351563 -609.2963256835938 1298.500610351563 Z" stroke="none"/>
    <path d="M -609.2963256835938 1298.000610351563 C -574.0355834960938 1298.000610351563 -538.3488159179688 1297.218139648438 -503.2273864746094 1295.674560546875 C -468.3398742675781 1294.141723632813 -433.0538024902344 1291.81591796875 -398.3495178222656 1288.762084960938 C -363.8673706054688 1285.727416992188 -329.0152282714844 1281.891357421875 -294.7605895996094 1277.359497070313 C -260.7159423828125 1272.855590820313 -226.3295135498047 1267.541259765625 -192.557373046875 1261.56494140625 C -158.9820251464844 1255.623046875 -125.0948791503906 1248.86376953125 -91.83702087402344 1241.475219726563 C -58.76309204101563 1234.12744140625 -25.40773582458496 1225.955932617188 7.302621841430664 1217.188110351563 C 39.84297943115234 1208.465576171875 72.63404846191406 1198.914916992188 104.764762878418 1188.800659179688 C 136.7394104003906 1178.735595703125 168.9329833984375 1167.837768554688 200.4515533447266 1156.410278320313 C 231.8286895751953 1145.033813476563 263.3922729492188 1132.822021484375 294.2665405273438 1120.114135742188 C 325.0133361816406 1107.458129882813 355.9143981933594 1093.965209960938 386.1115417480469 1080.009521484375 C 416.1958312988281 1066.10595703125 446.4015502929688 1051.364135742188 475.889404296875 1036.194213867188 C 505.2794189453125 1021.074157714844 534.7568969726563 1005.11669921875 563.5033569335938 988.764892578125 C 592.1661987304688 972.4602661132813 620.8829956054688 955.3195190429688 648.85546875 937.8191528320313 C 676.759033203125 920.3616943359375 704.681884765625 902.0706176757813 731.8486938476563 883.4541625976563 C 758.9601440429688 864.8756103515625 786.0565795898438 845.467041015625 812.385498046875 825.7677612304688 C 838.5455322265625 806.1943359375 864.6568603515625 785.803466796875 890.0001220703125 765.1566772460938 L 890.0001220703125 -1591.000122070313 L -1539.999877929688 -1591.000122070313 L -1539.999877929688 1108.749633789063 C -1504.518188476563 1123.875732421875 -1468.198120117188 1138.313232421875 -1432.0380859375 1151.665649414063 C -1395.4833984375 1165.163452148438 -1358.099853515625 1177.918823242188 -1320.925903320313 1189.577026367188 C -1283.541259765625 1201.30126953125 -1245.353149414063 1212.234497070313 -1207.421630859375 1222.073120117188 C -1169.257690429688 1231.9716796875 -1130.315185546875 1241.031982421875 -1091.675903320313 1249.001342773438 C -1052.783081054688 1257.0234375 -1013.137023925781 1264.1591796875 -973.8399047851563 1270.210571289063 C -934.26806640625 1276.30419921875 -893.9698486328125 1281.464477539063 -854.0637817382813 1285.548095703125 C -813.864501953125 1289.66162109375 -772.9641723632813 1292.795654296875 -732.4991455078125 1294.862060546875 C -691.7223510742188 1296.944580078125 -650.2709350585938 1298.000610351563 -609.2963256835938 1298.000610351563 M -609.2963256835938 1299.000610351563 C -940.0234375 1299.000610351563 -1254.885620117188 1231.478149414063 -1540.999877929688 1109.410278320313 L -1540.999877929688 -1592.000122070313 L 891.0001220703125 -1592.000122070313 L 891.0001220703125 765.6316528320313 C 481.9022521972656 1099.055908203125 -40.35666275024414 1299.000610351563 -609.2963256835938 1299.000610351563 Z" stroke="none" fill="#707070"/>
  </g>
</svg>
