<svg xmlns="http://www.w3.org/2000/svg" width="3296.982" height="1695.001" viewBox="0 0 3296.982 1695.001">
  <g id="TopCorner" transform="translate(1541 1077)" fill="#cc293e">
    <path d="M -521.1915893554688 617.5009155273438 C -566.4049072265625 617.5009155273438 -612.1332397460938 616.215087890625 -657.1061401367188 613.6788330078125 C -701.6995239257813 611.163818359375 -746.75244140625 607.3521728515625 -791.0128173828125 602.3492431640625 C -834.9186401367188 597.38671875 -879.2265625 591.118408203125 -922.7057495117188 583.7183837890625 C -965.8569946289063 576.374267578125 -1009.351196289063 567.718017578125 -1051.979858398438 557.9909057617188 C -1094.309448242188 548.3317260742188 -1136.920776367188 537.357177734375 -1178.63037109375 525.3721313476563 C -1220.069946289063 513.465087890625 -1261.7294921875 500.2409057617188 -1302.451538085938 486.0683898925781 C -1342.933715820313 471.9788208007813 -1383.572021484375 456.5750732421875 -1423.23828125 440.2842407226563 C -1462.59814453125 424.1188049316406 -1502.046997070313 406.6510314941406 -1540.49951171875 388.3606567382813 L -1540.49951171875 -1076.499877929688 L 1755.310913085938 -1076.499877929688 C 1746.27880859375 -1046.2919921875 1736.509399414063 -1015.865417480469 1726.268432617188 -986.0494995117188 C 1716.00048828125 -956.1549072265625 1704.978393554688 -926.057861328125 1693.508056640625 -896.594482421875 C 1682.084228515625 -867.250732421875 1669.903442382813 -837.732421875 1657.303833007813 -808.8599243164063 C 1644.7509765625 -780.0941162109375 1631.438842773438 -751.1824340820313 1617.737548828125 -722.9278564453125 C 1604.082641601563 -694.767822265625 1589.667114257813 -666.4903564453125 1574.892211914063 -638.8807373046875 C 1560.161743164063 -611.3536987304688 1544.670532226563 -583.7378540039063 1528.849609375 -556.80078125 C 1513.070068359375 -529.93408203125 1496.531372070313 -503.0078430175781 1479.692138671875 -476.7703552246094 C 1462.890502929688 -450.5911865234375 1445.330932617188 -424.3820190429688 1427.501708984375 -398.8711853027344 C 1409.704711914063 -373.4070129394531 1391.152587890625 -347.9428405761719 1372.360473632813 -323.1857604980469 C 1353.595092773438 -298.4645080566406 1334.078002929688 -273.7724304199219 1314.350952148438 -249.7966003417969 C 1294.643798828125 -225.8449249267578 1274.189208984375 -201.9532623291016 1253.555053710938 -178.7853393554688 C 1232.933471679688 -155.631591796875 1211.569213867188 -132.5678405761719 1190.055541992188 -110.2345123291016 C 1168.5458984375 -87.90576171875 1146.299194335938 -65.69742584228516 1123.933837890625 -44.22617721557617 C 1101.5634765625 -22.75034523010254 1078.462158203125 -1.425345063209534 1055.272583007813 19.15715408325195 C 1032.067993164063 39.75257110595703 1008.140502929688 60.1667366027832 984.15380859375 79.83340454101563 C 960.142578125 99.52048492431641 935.41552734375 118.9967346191406 910.6600952148438 137.7204895019531 C 885.8688354492188 156.4717407226563 860.3704833984375 174.9817352294922 834.8734130859375 192.736328125 C 809.328857421875 210.5238189697266 783.0867309570313 228.0400695800781 756.87548828125 244.7984008789063 C 730.6055297851563 261.5946655273438 703.6471557617188 278.0892333984375 676.7496948242188 293.8246459960938 C 649.7809448242188 309.601318359375 622.1338500976563 325.0471496582031 594.5771484375 339.7330017089844 C 566.936767578125 354.4625854492188 538.6292724609375 368.8317260742188 510.4404907226563 382.44091796875 C 482.1559143066406 396.0959167480469 453.215087890625 409.3604736328125 424.4217529296875 421.8663330078125 C 395.5205078125 434.4188232421875 365.9738464355469 446.5513305664063 336.6029968261719 457.9271545410156 C 307.1121520996094 469.3492431640625 276.9880065917969 480.3221435546875 247.0671691894531 490.5408935546875 C 217.0138397216797 500.8050842285156 186.3396606445313 510.5904846191406 155.8959197998047 519.6259155273438 C 125.3075866699219 528.7037963867188 94.11049652099609 537.274658203125 63.17133331298828 545.0992431640625 C 32.07550048828125 552.9638061523438 0.3838330209255219 560.291748046875 -31.02449989318848 566.879638671875 C -62.59991836547852 573.5025634765625 -94.75949859619141 579.56005859375 -126.6090850830078 584.8838500976563 C -158.6369934082031 590.2379760742188 -191.2361602783203 594.99755859375 -223.4999237060547 599.030517578125 C -255.9532470703125 603.0875854492188 -288.9640808105469 606.5213012695313 -321.6157531738281 609.2371826171875 C -354.4665832519531 611.96923828125 -387.8619995117188 614.050048828125 -420.8736572265625 615.4213256835938 C -454.0949096679688 616.8013305664063 -487.8465881347656 617.5009155273438 -521.1915893554688 617.5009155273438 Z" stroke="none"/>
    <path d="M -521.1915893554688 617.0009155273438 C -487.8536682128906 617.0009155273438 -454.1086730957031 616.3013305664063 -420.8940734863281 614.9217529296875 C -387.8894958496094 613.5504760742188 -354.5011596679688 611.470458984375 -321.6570129394531 608.7388305664063 C -289.0124206542969 606.0238037109375 -256.0086669921875 602.5905151367188 -223.5619964599609 598.5342407226563 C -191.3049163818359 594.5021362304688 -158.7128295898438 589.743408203125 -126.6911697387695 584.3909301757813 C -94.84866333007813 579.0679931640625 -62.6961669921875 573.01171875 -31.12700080871582 566.3900756835938 C 0.2742496728897095 559.8038330078125 31.95966720581055 552.4776000976563 63.04841613769531 544.6146850585938 C 93.98133087158203 536.7913208007813 125.1717529296875 528.2225952148438 155.75341796875 519.1463012695313 C 186.19091796875 510.1129760742188 216.8588256835938 500.3296508789063 246.9055023193359 490.0679931640625 C 276.820068359375 479.8508911132813 306.93798828125 468.8804931640625 336.4225769042969 457.4609069824219 C 365.7871704101563 446.0875854492188 395.3271789550781 433.9575805664063 424.2225952148438 421.4075622558594 C 453.0096740722656 408.9046630859375 481.9446716308594 395.642578125 510.2229919433594 381.990478515625 C 538.4059448242188 368.3842468261719 566.7075805664063 354.0184020996094 594.3417358398438 339.291748046875 C 621.8930053710938 324.6092529296875 649.5342407226563 309.166748046875 676.4971923828125 293.3929748535156 C 703.3892211914063 277.6609191894531 730.3417358398438 261.1696472167969 756.6063232421875 244.3771514892578 C 782.8121948242188 227.6221618652344 809.048828125 210.1096496582031 834.5875854492188 192.3259124755859 C 860.0792236328125 174.5750732421875 885.5721435546875 156.0692443847656 910.3583984375 137.3217315673828 C 935.1088256835938 118.6017379760742 959.8305053710938 99.12965393066406 983.8367309570313 79.44673919677734 C 1007.818420410156 59.78423690795898 1031.740966796875 39.37423706054688 1054.940551757813 18.78298759460449 C 1078.12548828125 -1.794928431510925 1101.221801757813 -23.11576080322266 1123.587524414063 -44.58701324462891 C 1145.948364257813 -66.05368041992188 1168.190063476563 -88.25743103027344 1189.695068359375 -110.5815963745117 C 1211.204711914063 -132.9099273681641 1232.564208984375 -155.9686737060547 1253.181762695313 -179.1178436279297 C 1273.811767578125 -202.2811737060547 1294.26220703125 -226.1678466796875 1313.964721679688 -250.1140899658203 C 1333.687622070313 -274.0853576660156 1353.200927734375 -298.7716064453125 1371.962158203125 -323.4882507324219 C 1390.75048828125 -348.2399291992188 1409.298828125 -373.6986694335938 1427.091796875 -399.1574401855469 C 1444.917602539063 -424.6632690429688 1462.473388671875 -450.8666076660156 1479.271362304688 -477.0403442382813 C 1496.106689453125 -503.2724304199219 1512.642211914063 -530.19287109375 1528.41845703125 -557.0540771484375 C 1544.236328125 -583.9857788085938 1559.723876953125 -611.5953369140625 1574.451293945313 -639.1165771484375 C 1589.223388671875 -666.7203369140625 1603.635498046875 -694.9920043945313 1617.287963867188 -723.145751953125 C 1630.986328125 -751.3949584960938 1644.295043945313 -780.3003540039063 1656.845458984375 -809.0599365234375 C 1669.442626953125 -837.9262084960938 1681.620971679688 -867.438232421875 1693.042114257813 -896.7757568359375 C 1704.510131835938 -926.2328491210938 1715.530029296875 -956.3236694335938 1725.795532226563 -986.2120361328125 C 1735.96142578125 -1015.808776855469 1745.663208007813 -1046.010375976563 1754.639282226563 -1075.999877929688 L -1539.99951171875 -1075.999877929688 L -1539.99951171875 388.0451354980469 C -1501.646362304688 406.2813720703125 -1462.301147460938 423.7001647949219 -1423.048217773438 439.8217468261719 C -1383.390380859375 456.1088256835938 -1342.7607421875 471.5096435546875 -1302.287475585938 485.5959167480469 C -1261.573608398438 499.7658996582031 -1219.923217773438 512.9867553710938 -1178.492431640625 524.8917236328125 C -1136.791625976563 536.874267578125 -1094.189086914063 547.8463134765625 -1051.86865234375 557.50341796875 C -1009.249084472656 567.2283935546875 -965.7640991210938 575.882568359375 -922.6220092773438 583.2254638671875 C -879.1519775390625 590.6238403320313 -834.853271484375 596.8909301757813 -790.9566040039063 601.8526000976563 C -746.705322265625 606.854248046875 -701.6619873046875 610.6654663085938 -657.0778198242188 613.1796264648438 C -612.114501953125 615.715087890625 -566.395751953125 617.0009155273438 -521.1915893554688 617.0009155273438 M -521.1915893554688 618.0009155273438 C -886.2007446289063 618.0009155273438 -1231.979125976563 535.715087890625 -1540.99951171875 388.6767272949219 L -1540.99951171875 -1076.999877929688 L 1755.982177734375 -1076.999877929688 C 1463.182983398438 -96.68284606933594 554.4513549804688 618.0009155273438 -521.1915893554688 618.0009155273438 Z" stroke="none" fill="#707070"/>
  </g>
</svg>
