<svg xmlns="http://www.w3.org/2000/svg" width="1000" height="1000" viewBox="0 0 1000 1000">
  <path id="Icon_User_Circle" data-name="Icon User Circle" d="M500,.563c-276.21,0-500,223.79-500,500s223.79,500,500,500,500-223.79,500-500S776.21.563,500,.563Zm0,193.548A177.419,177.419,0,1,1,322.581,371.53,177.422,177.422,0,0,1,500,194.111Zm0,693.548c-118.347,0-224.4-53.629-295.363-137.5,37.9-71.371,112.1-120.565,198.589-120.565a49.332,49.332,0,0,1,14.315,2.218c26.21,8.468,53.629,13.911,82.46,13.911s56.452-5.444,82.46-13.911a49.33,49.33,0,0,1,14.315-2.218c86.492,0,160.685,49.194,198.589,120.565C724.4,834.03,618.347,887.659,500,887.659Z" transform="translate(0 -0.563)" fill="#cc293e"/>
</svg>
